<svg width="32" height="32" viewBox="0 0 32 32" fill="none" xmlns="http://www.w3.org/2000/svg">
<path d="M27.6 28.4001C27.7333 28.2667 27.7333 28.1334 27.7333 28.0001L25.3333 9.73342C25.3333 9.46675 25.0667 9.20008 24.8 9.20008H21.2V7.86675C21.2 4.93341 18.8 2.66675 16 2.66675C13.2 2.66675 10.6667 5.06675 10.6667 7.86675V9.20008H6.93333C6.66667 9.33342 6.4 9.46675 6.4 9.73342L4 28.0001C4 28.1334 4 28.2667 4.13333 28.4001C4.4 28.6667 4.66667 29.0667 5.06667 29.3334C5.2 29.3334 5.2 29.4667 5.33333 29.4667H26.2667C26.4 29.4667 26.5333 29.4667 26.6667 29.3334C27.0667 28.9334 27.3333 28.6667 27.6 28.4001ZM11.7333 7.86675C11.7333 5.60008 13.6 3.73341 15.8667 3.73341C18.1333 3.73341 20 5.60008 20 7.86675V9.20008H11.7333V7.86675ZM26.1333 28.2668H5.6L5.06667 27.7334L7.46667 10.4001H24.2667V10.5334L26.5333 27.8667L26.1333 28.2668Z" fill="#121212"/>
</svg>
