<svg width="32" height="32" viewBox="0 0 32 32" fill="none" xmlns="http://www.w3.org/2000/svg">
<path d="M16.0001 2.66675C8.64821 2.66675 2.66675 8.64821 2.66675 16.0001C2.66675 23.3519 8.64821 29.3334 16.0001 29.3334C23.3519 29.3334 29.3334 23.3519 29.3334 16.0001C29.3334 8.64821 23.3519 2.66675 16.0001 2.66675ZM16.0001 28.174C9.28701 28.174 3.82615 22.7131 3.82615 16.0001C3.82615 9.28701 9.28701 3.82615 16.0001 3.82615C22.7131 3.82615 28.174 9.28701 28.174 16.0001C28.174 22.7131 22.7131 28.174 16.0001 28.174Z" fill="#121212"/>
<path d="M21.628 20.8082L16.5799 15.7601V6.72475C16.5799 6.40475 16.3201 6.14502 16.0001 6.14502C15.6801 6.14502 15.4204 6.40475 15.4204 6.72475V16.0001C15.4204 16.1543 15.4819 16.3016 15.5897 16.4106L20.8071 21.6279C20.9207 21.7404 21.0691 21.7972 21.2175 21.7972C21.366 21.7972 21.5143 21.7404 21.628 21.6279C21.854 21.4018 21.854 21.0343 21.628 20.8082Z" fill="#121212"/>
</svg>
