<svg width="14" height="14" viewBox="0 0 14 14" fill="none" xmlns="http://www.w3.org/2000/svg">
<path fill-rule="evenodd" clip-rule="evenodd" d="M7.26403 12.7314C7.81782 12.2327 8.35055 11.7651 8.82085 11.3524C11.5884 8.92377 13.4167 7.31931 13.4167 4.97426C13.4167 2.80362 11.9512 1.16675 10.0079 1.16675C9.31147 1.16675 8.67301 1.39399 8.11025 1.84218C7.79865 2.09033 7.5472 2.37772 7.34961 2.65291C7.20509 2.8542 7.08938 3.04897 7.00004 3.21709C6.9107 3.04896 6.795 2.85419 6.65048 2.6529C6.45289 2.37772 6.20144 2.09034 5.88983 1.84218C5.32707 1.39399 4.68861 1.16675 3.99223 1.16675C2.04888 1.16675 0.583374 2.80362 0.583374 4.97426C0.583374 7.31931 2.4117 8.92376 5.17954 11.3527L5.17998 11.3531C5.64989 11.7655 6.18249 12.2329 6.73606 12.7314C6.80904 12.7972 6.90279 12.8334 7.00004 12.8334C7.09729 12.8334 7.19104 12.7972 7.26403 12.7314Z" fill="#606060"/>
<path fill-rule="evenodd" clip-rule="evenodd" d="M7.00002 4.46022L6.48491 3.49081C6.29434 3.13215 5.98062 2.6602 5.52643 2.29848L5.84368 1.90012L5.52643 2.29848C5.06325 1.9296 4.55195 1.75008 3.99223 1.75008C2.43004 1.75008 1.16671 3.06344 1.16671 4.97426C1.16671 5.9727 1.54831 6.8348 2.29796 7.76629C3.06239 8.71615 4.16723 9.68824 5.5643 10.9142L5.56431 10.9142L5.56577 10.9155C5.99952 11.2962 6.48921 11.7259 7.00005 12.1843C7.51122 11.7256 8.00118 11.2956 8.43536 10.9146L8.43608 10.914L8.79579 11.3239L8.43608 10.914C9.833 9.68811 10.9378 8.71608 11.7022 7.76626C12.4518 6.83481 12.8334 5.9727 12.8334 4.97426C12.8334 3.06344 11.57 1.75008 10.0079 1.75008C9.44813 1.75008 8.93684 1.9296 8.47365 2.29848L8.1117 1.844L8.47365 2.29848C8.01947 2.66019 7.70575 3.13217 7.51516 3.49082L7.00002 4.46022ZM7.26403 12.7314C7.81782 12.2327 8.35055 11.7651 8.82085 11.3524C11.5884 8.92377 13.4167 7.31931 13.4167 4.97426C13.4167 2.80362 11.9512 1.16675 10.0079 1.16675C9.31147 1.16675 8.67301 1.39399 8.11025 1.84218C7.79865 2.09033 7.5472 2.37772 7.34961 2.65291C7.20509 2.8542 7.08938 3.04897 7.00004 3.21709C6.9107 3.04896 6.795 2.85419 6.65048 2.6529C6.45289 2.37772 6.20144 2.09034 5.88983 1.84218C5.32707 1.39399 4.68861 1.16675 3.99223 1.16675C2.04888 1.16675 0.583374 2.80362 0.583374 4.97426C0.583374 7.31931 2.4117 8.92376 5.17954 11.3527L5.17998 11.3531C5.64989 11.7655 6.18249 12.2329 6.73606 12.7314C6.80904 12.7972 6.90279 12.8334 7.00004 12.8334C7.09729 12.8334 7.19104 12.7972 7.26403 12.7314Z" fill="#606060"/>
</svg>
