<svg width="126" height="51" viewBox="0 0 126 51" fill="none" xmlns="http://www.w3.org/2000/svg">
<path d="M21.4165 25.2632C22.3314 28.0078 26.0949 30.8426 27.8622 31.9169C28.2781 32.1248 28.2781 31.9169 29.5257 31.3971C34.9318 27.3425 35.3476 24.3275 36.0754 19.961C36.8031 15.5946 35.1397 11.6439 33.1644 9.4607C31.1891 7.27746 29.7336 6.23783 27.4464 0C26.4068 9.56467 23.0799 7.90125 21.4165 13.7232C19.7531 19.5452 20.2729 21.8324 21.4165 25.2632Z" fill="#128707"/>
<path d="M17.3344 39.1205C19.8128 39.6277 23.605 38.0171 25.1912 37.1483C25.5305 36.9243 25.3731 36.8334 25.5249 35.6614C24.8181 29.7947 22.7167 28.1616 19.7283 25.7014C16.7398 23.2413 13.0208 22.7737 10.5039 23.315C7.98691 23.8563 6.56325 24.504 0.839484 23.5087C7.62805 28.4778 4.91383 30.2699 8.59541 34.075C12.277 37.8802 14.2363 38.4865 17.3344 39.1205Z" fill="#128707"/>
<path d="M20.8754 39.6676C22.4255 39.2837 24.8589 40.2015 25.8818 40.7083C26.1016 40.8408 26.0046 40.9023 26.1307 41.6375C25.8366 45.356 24.5535 46.4403 22.7322 48.0693C20.911 49.6982 18.5775 50.0893 16.976 49.813C15.3746 49.5366 14.4599 49.1649 10.8756 49.9406C15.0287 46.631 13.2705 45.5709 15.4941 43.0758C17.7177 40.5807 18.9378 40.1476 20.8754 39.6676Z" fill="#128707"/>
<path d="M33.9273 39.6676C32.3772 39.2837 29.9438 40.2015 28.9209 40.7083C28.7011 40.8408 28.7981 40.9023 28.672 41.6375C28.9661 45.356 30.2493 46.4403 32.0705 48.0693C33.8917 49.6982 36.2252 50.0893 37.8267 49.813C39.4282 49.5366 40.3428 49.1649 43.9271 49.9406C39.774 46.631 41.5322 45.5709 39.3086 43.0758C37.085 40.5807 35.8649 40.1476 33.9273 39.6676Z" fill="#128707"/>
<path d="M39.3233 39.1571C36.8449 39.6643 33.0527 38.0537 31.4665 37.185C31.1272 36.961 31.2846 36.87 31.1328 35.698C31.8397 29.8314 33.941 28.1983 36.9295 25.7381C39.9179 23.2779 43.6369 22.8103 46.1539 23.3516C48.6708 23.8929 50.0945 24.5406 55.8182 23.5454C49.0297 28.5145 51.7439 30.3065 48.0623 34.1117C44.3807 37.9168 42.4214 38.5231 39.3233 39.1571Z" fill="#128707"/>
<path d="M74.9626 20.6943C74.9626 20.3896 74.9158 20.1162 74.822 19.874C74.7361 19.624 74.572 19.3975 74.3298 19.1943C74.0876 18.9834 73.7478 18.7764 73.3103 18.5732C72.8728 18.3701 72.3064 18.1592 71.6111 17.9404C70.8376 17.6904 70.1033 17.4092 69.408 17.0967C68.7205 16.7842 68.1111 16.4209 67.5798 16.0068C67.0564 15.585 66.6423 15.0967 66.3376 14.542C66.0408 13.9873 65.8923 13.3428 65.8923 12.6084C65.8923 11.8975 66.0486 11.2529 66.3611 10.6748C66.6736 10.0889 67.1111 9.58887 67.6736 9.1748C68.2361 8.75293 68.9001 8.42871 69.6658 8.20215C70.4392 7.97559 71.2869 7.8623 72.2087 7.8623C73.4666 7.8623 74.5642 8.08887 75.5017 8.54199C76.4392 8.99512 77.1658 9.61621 77.6814 10.4053C78.2048 11.1943 78.4666 12.0967 78.4666 13.1123H74.9744C74.9744 12.6123 74.8689 12.1748 74.658 11.7998C74.4548 11.417 74.1423 11.1162 73.7205 10.8975C73.3064 10.6787 72.783 10.5693 72.1501 10.5693C71.5408 10.5693 71.033 10.6631 70.6267 10.8506C70.2205 11.0303 69.9158 11.2764 69.7126 11.5889C69.5095 11.8936 69.408 12.2373 69.408 12.6201C69.408 12.9092 69.4783 13.1709 69.6189 13.4053C69.7673 13.6396 69.9861 13.8584 70.2751 14.0615C70.5642 14.2646 70.9197 14.4561 71.3416 14.6357C71.7634 14.8154 72.2517 14.9912 72.8064 15.1631C73.7361 15.4443 74.5525 15.7607 75.2556 16.1123C75.9666 16.4639 76.5603 16.8584 77.0369 17.2959C77.5134 17.7334 77.8728 18.2295 78.115 18.7842C78.3572 19.3389 78.4783 19.9678 78.4783 20.6709C78.4783 21.4131 78.3337 22.0771 78.0447 22.6631C77.7556 23.249 77.3376 23.7451 76.7908 24.1514C76.2439 24.5576 75.5916 24.8662 74.8337 25.0771C74.0759 25.2881 73.2283 25.3936 72.2908 25.3936C71.447 25.3936 70.615 25.2842 69.7947 25.0654C68.9744 24.8389 68.2283 24.499 67.5564 24.0459C66.8923 23.5928 66.3611 23.0146 65.9626 22.3115C65.5642 21.6084 65.365 20.7764 65.365 19.8154H68.8923C68.8923 20.3467 68.9744 20.7959 69.1384 21.1631C69.3025 21.5303 69.533 21.8271 69.8298 22.0537C70.1345 22.2803 70.4939 22.4443 70.908 22.5459C71.3298 22.6475 71.7908 22.6982 72.2908 22.6982C72.9001 22.6982 73.4001 22.6123 73.7908 22.4404C74.1892 22.2686 74.4822 22.0303 74.6697 21.7256C74.865 21.4209 74.9626 21.0771 74.9626 20.6943ZM87.5017 22.2998V16.6514C87.5017 16.2451 87.4353 15.8975 87.3025 15.6084C87.1697 15.3115 86.9626 15.0811 86.6814 14.917C86.408 14.7529 86.0525 14.6709 85.615 14.6709C85.24 14.6709 84.9158 14.7373 84.6423 14.8701C84.3689 14.9951 84.158 15.1787 84.0095 15.4209C83.8611 15.6553 83.7869 15.9326 83.7869 16.2529H80.4119C80.4119 15.7139 80.5369 15.2021 80.7869 14.7178C81.0369 14.2334 81.4001 13.8076 81.8767 13.4404C82.3533 13.0654 82.9197 12.7725 83.5759 12.5615C84.24 12.3506 84.9822 12.2451 85.8025 12.2451C86.7869 12.2451 87.6619 12.4092 88.4275 12.7373C89.1931 13.0654 89.7947 13.5576 90.2322 14.2139C90.6775 14.8701 90.9001 15.6904 90.9001 16.6748V22.1006C90.9001 22.7959 90.9431 23.3662 91.0291 23.8115C91.115 24.249 91.24 24.6318 91.4041 24.96V25.1592H87.9939C87.8298 24.8154 87.7048 24.3857 87.6189 23.8701C87.5408 23.3467 87.5017 22.8232 87.5017 22.2998ZM87.947 17.4365L87.9705 19.3467H86.0837C85.6384 19.3467 85.2517 19.3975 84.9236 19.499C84.5955 19.6006 84.3259 19.7451 84.115 19.9326C83.9041 20.1123 83.7478 20.3232 83.6462 20.5654C83.5525 20.8076 83.5056 21.0732 83.5056 21.3623C83.5056 21.6514 83.572 21.9131 83.7048 22.1475C83.8376 22.374 84.0291 22.5537 84.2791 22.6865C84.5291 22.8115 84.822 22.874 85.158 22.874C85.6658 22.874 86.1072 22.7725 86.4822 22.5693C86.8572 22.3662 87.1462 22.1162 87.3494 21.8193C87.5603 21.5225 87.6697 21.2412 87.6775 20.9756L88.5681 22.4053C88.4431 22.7256 88.2712 23.0576 88.0525 23.4014C87.8416 23.7451 87.572 24.0693 87.2439 24.374C86.9158 24.6709 86.5212 24.917 86.0603 25.1123C85.5994 25.2998 85.0525 25.3936 84.4197 25.3936C83.615 25.3936 82.8845 25.2334 82.2283 24.9131C81.5798 24.585 81.0642 24.1357 80.6814 23.5654C80.3064 22.9873 80.1189 22.3311 80.1189 21.5967C80.1189 20.9326 80.2439 20.3428 80.4939 19.8271C80.7439 19.3115 81.1111 18.8779 81.5955 18.5264C82.0876 18.167 82.7009 17.8975 83.4353 17.7178C84.1697 17.5303 85.0212 17.4365 85.99 17.4365H87.947ZM96.8767 15.1045V25.1592H93.49V12.4795H96.6658L96.8767 15.1045ZM96.408 18.374H95.4705C95.4705 17.4912 95.5759 16.6787 95.7869 15.9365C96.0056 15.1865 96.322 14.5381 96.7361 13.9912C97.158 13.4365 97.6775 13.0068 98.2947 12.7021C98.9119 12.3975 99.6267 12.2451 100.439 12.2451C101.002 12.2451 101.517 12.3311 101.986 12.5029C102.455 12.667 102.857 12.9287 103.193 13.2881C103.537 13.6396 103.802 14.1006 103.99 14.6709C104.177 15.2334 104.271 15.9092 104.271 16.6982V25.1592H100.896V17.0732C100.896 16.4951 100.818 16.0498 100.662 15.7373C100.506 15.4248 100.283 15.2061 99.9939 15.0811C99.7126 14.9561 99.3728 14.8936 98.9744 14.8936C98.5369 14.8936 98.1541 14.9834 97.8259 15.1631C97.5056 15.3428 97.24 15.5928 97.0291 15.9131C96.8181 16.2256 96.6619 16.5928 96.5603 17.0146C96.4587 17.4365 96.408 17.8896 96.408 18.374ZM103.955 17.9873L102.748 18.1396C102.748 17.3115 102.849 16.542 103.052 15.8311C103.263 15.1201 103.572 14.4951 103.978 13.9561C104.392 13.417 104.904 12.999 105.513 12.7021C106.123 12.3975 106.826 12.2451 107.623 12.2451C108.232 12.2451 108.787 12.335 109.287 12.5146C109.787 12.6865 110.213 12.9639 110.564 13.3467C110.924 13.7217 111.197 14.2139 111.385 14.8232C111.58 15.4326 111.677 16.1787 111.677 17.0615V25.1592H108.291V17.0615C108.291 16.4756 108.213 16.0303 108.056 15.7256C107.908 15.4131 107.689 15.1982 107.4 15.0811C107.119 14.9561 106.783 14.8936 106.392 14.8936C105.986 14.8936 105.631 14.9756 105.326 15.1396C105.021 15.2959 104.767 15.5146 104.564 15.7959C104.361 16.0771 104.209 16.4053 104.107 16.7803C104.006 17.1475 103.955 17.5498 103.955 17.9873Z" fill="#121212"/>
<path d="M66.1208 32.6279H67.6091L69.8005 38.8916L71.9919 32.6279H73.4802L70.3982 41.1592H69.2029L66.1208 32.6279ZM65.3181 32.6279H66.8005L67.0701 38.7334V41.1592H65.3181V32.6279ZM72.8005 32.6279H74.2888V41.1592H72.531V38.7334L72.8005 32.6279ZM81.8641 34.0869L79.5437 41.1592H77.6746L80.8445 32.6279H82.034L81.8641 34.0869ZM83.7918 41.1592L81.4656 34.0869L81.2781 32.6279H82.4793L85.6668 41.1592H83.7918ZM83.6863 37.9834V39.3604H79.1805V37.9834H83.6863ZM88.9178 32.6279H92.0994C92.7518 32.6279 93.3123 32.7256 93.7811 32.9209C94.2537 33.1162 94.617 33.4053 94.8709 33.7881C95.1248 34.1709 95.2518 34.6416 95.2518 35.2002C95.2518 35.6572 95.1737 36.0498 95.0174 36.3779C94.8651 36.7021 94.6483 36.9736 94.367 37.1924C94.0897 37.4072 93.7635 37.5791 93.3885 37.708L92.8319 38.001H90.0662L90.0545 36.6299H92.1112C92.4198 36.6299 92.6756 36.5752 92.8787 36.4658C93.0819 36.3564 93.2342 36.2041 93.3358 36.0088C93.4412 35.8135 93.494 35.5869 93.494 35.3291C93.494 35.0557 93.4432 34.8193 93.3416 34.6201C93.2401 34.4209 93.0858 34.2686 92.8787 34.1631C92.6717 34.0576 92.4119 34.0049 92.0994 34.0049H90.6756V41.1592H88.9178V32.6279ZM93.6873 41.1592L91.742 37.3564L93.5994 37.3447L95.5682 41.0771V41.1592H93.6873ZM100.823 32.6279V41.1592H99.0653V32.6279H100.823ZM105.932 32.6279L102.552 36.8408L100.6 38.9385L100.284 37.2744L101.602 35.4697L103.776 32.6279H105.932ZM103.934 41.1592L101.421 37.2158L102.722 36.126L106.015 41.1592H103.934ZM114.879 39.7881V41.1592H110.338V39.7881H114.879ZM110.912 32.6279V41.1592H109.154V32.6279H110.912ZM114.287 36.1025V37.4385H110.338V36.1025H114.287ZM114.873 32.6279V34.0049H110.338V32.6279H114.873ZM122.296 32.6279V41.1592H120.544V32.6279H122.296ZM124.921 32.6279V34.0049H117.96V32.6279H124.921Z" fill="#128707"/>
</svg>
