<svg width="38" height="38" viewBox="0 0 38 38" fill="none" xmlns="http://www.w3.org/2000/svg">
<rect width="38" height="38" fill="#128707"/>
<path d="M28.8581 28.0332L24.3006 23.4758C25.6994 21.8807 26.4712 19.8624 26.4712 17.7212C26.4712 15.3839 25.5609 13.1867 23.9083 11.5341C22.2557 9.88151 20.0585 8.97119 17.7212 8.97119C15.3839 8.97119 13.1867 9.88151 11.5341 11.5341C9.88151 13.1867 8.97119 15.3839 8.97119 17.7212C8.97119 20.0585 9.88151 22.2557 11.5341 23.9083C13.1867 25.5609 15.3839 26.4712 17.7212 26.4712C19.8624 26.4712 21.8807 25.6994 23.4758 24.3006L28.0332 28.8581C28.1471 28.972 28.2964 29.029 28.4456 29.029C28.5949 29.029 28.7441 28.972 28.8581 28.8581C29.0859 28.6302 29.0859 28.2611 28.8581 28.0332ZM12.359 23.0834C10.9268 21.651 10.1379 19.7466 10.1379 17.7212C10.1379 15.6958 10.9268 13.7914 12.359 12.359C13.7914 10.9268 15.6958 10.1379 17.7212 10.1379C19.7466 10.1379 21.651 10.9268 23.0834 12.359C24.5155 13.7914 25.3045 15.6958 25.3045 17.7212C25.3045 19.7466 24.5155 21.651 23.0834 23.0834C21.651 24.5155 19.7466 25.3045 17.7212 25.3045C15.6958 25.3045 13.7914 24.5155 12.359 23.0834Z" fill="white"/>
</svg>
