<svg width="14" height="15" viewBox="0 0 14 15" fill="none" xmlns="http://www.w3.org/2000/svg">
<path d="M13.0349 10.33L12.1799 9.1C12.0632 8.9328 12.0004 8.73391 11.9999 8.53V5C11.9999 3.67392 11.4731 2.40215 10.5354 1.46447C9.59777 0.526784 8.326 0 6.99992 0C5.67383 0 4.40207 0.526784 3.46438 1.46447C2.5267 2.40215 1.99992 3.67392 1.99992 5V8.53C1.99943 8.73391 1.93663 8.9328 1.81992 9.1L0.964917 10.33C0.835457 10.4734 0.750326 10.6513 0.719819 10.8421C0.689311 11.0329 0.714734 11.2285 0.793013 11.4051C0.871293 11.5818 0.999075 11.732 1.16091 11.8375C1.32274 11.9431 1.51169 11.9995 1.70492 12H4.54992C4.66467 12.5651 4.97128 13.0732 5.41779 13.4382C5.86429 13.8031 6.42324 14.0025 6.99992 14.0025C7.57659 14.0025 8.13554 13.8031 8.58205 13.4382C9.02855 13.0732 9.33516 12.5651 9.44992 12H12.2949C12.4881 11.9995 12.6771 11.9431 12.8389 11.8375C13.0008 11.732 13.1285 11.5818 13.2068 11.4051C13.2851 11.2285 13.3105 11.0329 13.28 10.8421C13.2495 10.6513 13.1644 10.4734 13.0349 10.33ZM6.99992 13C6.69044 12.9991 6.38882 12.9026 6.13638 12.7235C5.88395 12.5445 5.69307 12.2918 5.58992 12H8.40992C8.30676 12.2918 8.11588 12.5445 7.86345 12.7235C7.61102 12.9026 7.30939 12.9991 6.99992 13ZM1.70492 11C1.72752 10.979 1.74765 10.9555 1.76492 10.93L2.63992 9.67C2.87334 9.33559 2.99895 8.93782 2.99992 8.53V5C2.99992 3.93913 3.42134 2.92172 4.17149 2.17157C4.92164 1.42143 5.93905 1 6.99992 1C8.06078 1 9.0782 1.42143 9.82834 2.17157C10.5785 2.92172 10.9999 3.93913 10.9999 5V8.53C11.0009 8.93782 11.1265 9.33559 11.3599 9.67L12.2349 10.93C12.2522 10.9555 12.2723 10.979 12.2949 11H1.70492Z" fill="#606060"/>
</svg>
