<svg width="16" height="16" viewBox="0 0 16 16" fill="none" xmlns="http://www.w3.org/2000/svg">
<path d="M14.0729 11.717C14.7592 10.5988 15.1217 9.31205 15.1199 8.00001L15.1199 7.99988L15.1199 7.99976C15.1217 6.6877 14.7592 5.4009 14.0729 4.28269L14.069 4.27658C13.4322 3.23872 12.5399 2.3815 11.4774 1.78682C10.4148 1.19215 9.21754 0.879888 7.99991 0.879883C6.78227 0.879878 5.58498 1.19213 4.52244 1.7868C3.45989 2.38146 2.5676 3.23868 1.93082 4.27653L1.92687 4.28271C1.2422 5.4017 0.879888 6.68803 0.879883 7.99986C0.879878 9.31168 1.24218 10.598 1.92684 11.717L1.93086 11.7233C2.56764 12.7611 3.45993 13.6183 4.52247 14.213C5.58501 14.8076 6.78229 15.1199 7.99991 15.1199C9.21753 15.1199 10.4148 14.8076 11.4773 14.2129C12.5399 13.6183 13.4322 12.7611 14.0689 11.7232L14.0729 11.717ZM8.90998 13.8996C8.7743 14.0305 8.61814 14.1384 8.44768 14.2189C8.30776 14.2854 8.15479 14.3199 7.99988 14.3199C7.84497 14.3199 7.692 14.2854 7.55208 14.2189C7.22768 14.0532 6.94999 13.8088 6.74439 13.5081C6.32449 12.9014 6.01331 12.2262 5.82477 11.5128C6.54907 11.4682 7.27411 11.4455 7.99988 11.4447C8.72535 11.4447 9.45043 11.4674 10.1751 11.5128C10.0708 11.8796 9.9404 12.2385 9.78504 12.5868C9.58046 13.0766 9.28335 13.5223 8.90998 13.8996V13.8996ZM1.6938 8.39988H4.56564C4.58434 9.20123 4.6712 9.99953 4.82528 10.7861C4.04023 10.8552 3.25719 10.9501 2.47615 11.0708C2.01879 10.2502 1.75144 9.33751 1.6938 8.39988ZM2.47615 4.92896C3.25688 5.04995 4.0402 5.14485 4.8261 5.21367C4.67172 6.00024 4.58467 6.79853 4.5659 7.59988H1.6938C1.75143 6.66225 2.01878 5.74951 2.47614 4.92896H2.47615ZM7.08978 2.10015C7.22545 1.96923 7.38161 1.86138 7.55208 1.78085C7.692 1.71437 7.84497 1.67987 7.99988 1.67987C8.15479 1.67987 8.30776 1.71437 8.44768 1.78085C8.77208 1.94655 9.04977 2.19092 9.25537 2.49162C9.67526 3.09838 9.98644 3.77354 10.175 4.48692C9.45068 4.53149 8.72564 4.5542 7.99988 4.55504C7.27441 4.55503 6.54933 4.53232 5.82464 4.48691C5.929 4.12012 6.05936 3.76123 6.21473 3.41297C6.4193 2.92318 6.71641 2.47743 7.08978 2.10015ZM14.306 7.59988H11.4341C11.4154 6.79853 11.3286 6.00022 11.1745 5.2136C11.9595 5.14452 12.7426 5.04964 13.5236 4.92896C13.981 5.74951 14.2483 6.66225 14.306 7.59988ZM5.62989 10.724C5.47344 9.95858 5.38508 9.18085 5.36585 8.39988H10.634C10.6149 9.18085 10.5267 9.95858 10.3704 10.724C9.58111 10.6722 8.79093 10.6458 7.99988 10.6447C7.20941 10.6447 6.41941 10.6711 5.62989 10.724ZM10.3699 5.27579C10.5263 6.04118 10.6147 6.81891 10.6339 7.59988H5.36576C5.38482 6.81891 5.47302 6.04117 5.62932 5.27576C6.41864 5.32755 7.20883 5.35397 7.99988 5.35503C8.79036 5.35503 9.58036 5.32862 10.3699 5.2758V5.27579ZM11.4338 8.39988H14.306C14.2483 9.33751 13.981 10.2502 13.5236 11.0708C12.7429 10.9498 11.9596 10.8549 11.1737 10.7861C11.328 9.99952 11.4151 9.20123 11.4338 8.39988ZM13.0439 4.19265C12.3613 4.29113 11.6767 4.36911 10.99 4.42657C10.8666 3.96706 10.7074 3.51791 10.5139 3.08324C10.3373 2.68323 10.115 2.30497 9.85153 1.95599C11.1248 2.34648 12.2421 3.12929 13.0439 4.19265ZM3.53095 3.53095C4.26133 2.79987 5.1599 2.25911 6.14789 1.95608C6.1329 1.9755 6.11748 1.99405 6.10271 2.01387C5.59488 2.7449 5.22498 3.56262 5.01124 4.42669C4.32451 4.36853 3.63936 4.29051 2.95581 4.19265C3.13211 3.95914 3.32427 3.73805 3.53095 3.53095ZM2.95581 11.8071C3.63842 11.7086 4.32307 11.6306 5.00978 11.5732C5.13319 12.0327 5.29237 12.4818 5.48585 12.9165C5.66249 13.3165 5.88476 13.6948 6.14822 14.0438C4.87496 13.6533 3.75764 12.8705 2.95581 11.8071V11.8071ZM12.4688 12.4688C11.7384 13.1999 10.8399 13.7406 9.85187 14.0437C9.86686 14.0243 9.88227 14.0057 9.89705 13.9859C10.4049 13.2549 10.7748 12.4371 10.9885 11.5731C11.6753 11.6312 12.3604 11.7092 13.044 11.8071C12.8677 12.0406 12.6755 12.2617 12.4688 12.4688V12.4688Z" fill="#606060"/>
</svg>
